<?xml version="1.0" encoding="UTF-8" standalone="no"?>
<!-- Created with Inkscape (http://www.inkscape.org/) -->

<svg
   width="48"
   height="48"
   viewBox="0 0 12.7 12.7"
   version="1.1"
   id="svg1"
   xml:space="preserve"
   inkscape:version="1.4 (e7c3feb100, 2024-10-09)"
   sodipodi:docname="video.svg"
   xmlns:inkscape="http://www.inkscape.org/namespaces/inkscape"
   xmlns:sodipodi="http://sodipodi.sourceforge.net/DTD/sodipodi-0.dtd"
   xmlns="http://www.w3.org/2000/svg"
   xmlns:svg="http://www.w3.org/2000/svg"><sodipodi:namedview
     id="namedview1"
     pagecolor="#ffffff"
     bordercolor="#000000"
     borderopacity="0.25"
     inkscape:showpageshadow="2"
     inkscape:pageopacity="0.0"
     inkscape:pagecheckerboard="0"
     inkscape:deskcolor="#d1d1d1"
     inkscape:document-units="mm"
     inkscape:zoom="10.166667"
     inkscape:cx="24"
     inkscape:cy="24"
     inkscape:window-width="1366"
     inkscape:window-height="696"
     inkscape:window-x="0"
     inkscape:window-y="0"
     inkscape:window-maximized="1"
     inkscape:current-layer="layer1" /><defs
     id="defs1" /><g
     inkscape:label="Camada 1"
     inkscape:groupmode="layer"
     id="layer1"><g
       id="g1"
       transform="matrix(0.18990261,0,0,0.18990261,-13.992893,-22.209028)"><path
         id="rect15"
         style="opacity:1;fill:#48c4c6;fill-opacity:1;stroke-width:0.182452"
         d="m 118.32879,125.32404 18.40578,17.97021 c 3.2253,3.14898 3.24659,8.24079 0.0477,11.41661 l -20.84231,20.69215 c -3.19887,3.17583 -8.37068,3.19744 -11.59598,0.0485 L 85.938205,157.48125 c -3.2253,-3.14897 -3.24658,-8.24077 -0.0477,-11.4166 L 106.73283,125.3725 c 3.19886,-3.17582 8.37067,-3.19744 11.59597,-0.0485 z" /><path
         id="path15"
         style="opacity:1;fill:#000000;fill-opacity:1;stroke-width:0.290976"
         d="m 102.93067,142.26153 v 14.30248 h 31.98513 l 1.86655,-1.85311 c 3.19887,-3.17583 3.17772,-8.2679 -0.0475,-11.41688 l -1.0573,-1.03249 z m 3.8039,0.83715 h 1.44539 v 1.44539 h -1.44539 z m 5.40122,0.076 h 1.44539 v 1.44539 h -1.44539 z m 2.74609,0 h 1.44539 v 1.44539 h -1.44539 z m 2.64583,0 h 1.44539 v 1.44539 h -1.44539 z m 2.84634,0 h 1.44539 v 1.44539 h -1.44539 z m 2.64583,0 h 1.44539 v 1.44539 h -1.44539 z m 2.74557,0 h 1.44539 v 1.44539 h -1.44539 z m 2.64583,0 h 1.44539 v 1.44539 h -1.44539 z m 2.74557,0 h 1.44539 v 1.44539 h -1.44539 z m 2.87528,0 h 1.44539 v 1.44539 h -1.44539 z m -27.29756,10.80761 h 1.44539 v 1.44539 h -1.44539 z m 5.40122,0.076 h 1.44539 v 1.44539 h -1.44539 z m 2.74609,0 h 1.44539 v 1.44539 h -1.44539 z m 2.64583,0 h 1.44539 v 1.44539 h -1.44539 z m 2.84634,0 h 1.44539 v 1.44539 h -1.44539 z m 2.64583,0 h 1.44539 v 1.44539 h -1.44539 z m 2.74557,0 h 1.44539 v 1.44539 h -1.44539 z m 2.64583,0 h 1.44539 v 1.44539 h -1.44539 z m 2.74557,0 h 1.44539 v 1.44539 h -1.44539 z m 2.87528,0 h 1.44539 v 1.44539 h -1.44539 z" /><circle
         style="opacity:1;fill:#000000;fill-opacity:1;stroke-width:0.171356"
         id="circle8"
         cx="93.959167"
         cy="148.86571"
         r="13.717398" /><g
         id="g38"
         style="opacity:0.38531"><circle
           style="fill:none;fill-opacity:1;stroke:#ffffff;stroke-width:0.236538;stroke-opacity:1"
           id="path37"
           cx="93.959167"
           cy="148.86571"
           r="11.727033" /><circle
           style="fill:none;fill-opacity:1;stroke:#ffffff;stroke-width:0.207535;stroke-opacity:1"
           id="circle37"
           cx="93.959167"
           cy="148.86571"
           r="10.289104" /><circle
           style="fill:none;fill-opacity:1;stroke:#ffffff;stroke-width:0.184977;stroke-opacity:1"
           id="circle38"
           cx="93.959167"
           cy="148.86571"
           r="9.1707153" /></g><path
         id="path1"
         style="opacity:1;fill:#f57f1d;fill-opacity:1;stroke-width:0.23385"
         d="m 93.798135,130.30653 a 18.720215,18.720215 0 0 0 -18.7203,18.7203 18.720215,18.720215 0 0 0 18.7203,18.72031 18.720215,18.720215 0 0 0 18.719795,-18.72031 18.720215,18.720215 0 0 0 -18.719795,-18.7203 z m 0.0537,1.50637 a 5.1641951,5.1641951 0 0 1 5.16403,5.16402 5.1641951,5.1641951 0 0 1 -5.16403,5.16454 5.1641951,5.1641951 0 0 1 -5.16454,-5.16454 5.1641951,5.1641951 0 0 1 5.16454,-5.16402 z m 10.328045,6.02495 a 5.1641951,5.1641951 0 0 1 5.16455,5.16403 5.1641951,5.1641951 0 0 1 -5.16455,5.16454 5.1641951,5.1641951 0 0 1 -5.164015,-5.16454 5.1641951,5.1641951 0 0 1 5.164015,-5.16403 z m -20.549125,0.10749 a 5.1641951,5.1641951 0 0 1 5.16403,5.16402 5.1641951,5.1641951 0 0 1 -5.16403,5.16455 5.1641951,5.1641951 0 0 1 -5.16402,-5.16455 5.1641951,5.1641951 0 0 1 5.16402,-5.16402 z m 12.29486,6.41459 a 1.0650615,1.0650615 0 0 1 1.06505,1.06506 1.0650615,1.0650615 0 0 1 -1.06505,1.06505 1.0650615,1.0650615 0 0 1 -1.06505,-1.06505 1.0650615,1.0650615 0 0 1 1.06505,-1.06506 z m -4.10828,0.0191 a 1.0650615,1.0650615 0 0 1 1.06505,1.06506 1.0650615,1.0650615 0 0 1 -1.06505,1.06505 1.0650615,1.0650615 0 0 1 -1.06505,-1.06505 1.0650615,1.0650615 0 0 1 1.06505,-1.06506 z m 1.9973,2.96675 a 1.5785732,1.5785732 0 0 1 1.5782,1.57871 1.5785732,1.5785732 0 0 1 -1.5782,1.5782 1.5785732,1.5785732 0 0 1 -1.57872,-1.5782 1.5785732,1.5785732 0 0 1 1.57872,-1.57871 z m -4.05092,0.53278 a 1.0650615,1.0650615 0 0 1 1.06505,1.06505 1.0650615,1.0650615 0 0 1 -1.06505,1.06505 1.0650615,1.0650615 0 0 1 -1.06557,-1.06505 1.0650615,1.0650615 0 0 1 1.06557,-1.06505 z m 8.21604,0 a 1.0650615,1.0650615 0 0 1 1.06505,1.06505 1.0650615,1.0650615 0 0 1 -1.06505,1.06505 1.0650615,1.0650615 0 0 1 -1.06505,-1.06505 1.0650615,1.0650615 0 0 1 1.06505,-1.06505 z m -14.45648,1.79369 a 5.1641951,5.1641951 0 0 1 5.16402,5.16454 5.1641951,5.1641951 0 0 1 -5.16402,5.16403 5.1641951,5.1641951 0 0 1 -5.16403,-5.16403 5.1641951,5.1641951 0 0 1 5.16403,-5.16454 z m 20.764095,0.10801 a 5.1641951,5.1641951 0 0 1 5.16454,5.16402 5.1641951,5.1641951 0 0 1 -5.16454,5.16403 5.1641951,5.1641951 0 0 1 -5.164015,-5.16403 5.1641951,5.1641951 0 0 1 5.164015,-5.16402 z m -12.450915,1.61643 a 1.0650615,1.0650615 0 0 1 1.06506,1.06506 1.0650615,1.0650615 0 0 1 -1.06506,1.06505 1.0650615,1.0650615 0 0 1 -1.06505,-1.06505 1.0650615,1.0650615 0 0 1 1.06505,-1.06506 z m 4.08916,0.0574 a 1.0650615,1.0650615 0 0 1 1.06505,1.06506 1.0650615,1.0650615 0 0 1 -1.06505,1.06505 1.0650615,1.0650615 0 0 1 -1.06505,-1.06505 1.0650615,1.0650615 0 0 1 1.06505,-1.06506 z m -2.07378,4.24316 a 5.1641951,5.1641951 0 0 1 5.16403,5.16454 5.1641951,5.1641951 0 0 1 -5.16403,5.16403 5.1641951,5.1641951 0 0 1 -5.16454,-5.16403 5.1641951,5.1641951 0 0 1 5.16454,-5.16454 z" /></g></g></svg>
