<svg xmlns="http://www.w3.org/2000/svg" xml:space="preserve" width="48" height="48" viewBox="0 0 12.7 12.7"><path d="m8.478 1.59 3.495 3.413c.613.598.617 1.565.01 2.168l-3.959 3.93a1.57 1.57 0 0 1-2.202.009L2.327 7.697a1.513 1.513 0 0 1-.01-2.168l3.959-3.93a1.57 1.57 0 0 1 2.202-.009" style="fill:#48c4c6;fill-opacity:1;stroke-width:.0346481"/><path d="M5.554 4.807v2.716h6.074l.354-.352a1.513 1.513 0 0 0-.009-2.168l-.2-.196zm.722.159h.275v.274h-.275Zm1.026.014h.274v.275h-.274Zm.521 0h.275v.275h-.275Zm.503 0H8.6v.275h-.274Zm.54 0h.275v.275h-.275Zm.503 0h.274v.275H9.37Zm.521 0h.275v.275H9.89Zm.503 0h.274v.275h-.274zm.521 0h.275v.275h-.275zm.546 0h.275v.275h-.275ZM6.276 7.033h.275v.274h-.275Zm1.026.014h.274v.275h-.274Zm.521 0h.275v.275h-.275Zm.503 0H8.6v.275h-.274Zm.54 0h.275v.275h-.275Zm.503 0h.274v.275H9.37Zm.521 0h.275v.275H9.89Zm.503 0h.274v.275h-.274zm.521 0h.275v.275h-.275zm.546 0h.275v.275h-.275Z" style="fill:#000;fill-opacity:1;stroke-width:.0552571"/><circle cx="3.85" cy="6.061" r="2.605" style="fill:#000;fill-opacity:1;stroke-width:.032541"/><g style="opacity:.38531" transform="translate(-13.993 -22.209)scale(.1899)"><circle cx="93.959" cy="148.866" r="11.727" style="fill:none;fill-opacity:1;stroke:#fff;stroke-width:.236538;stroke-opacity:1"/><circle cx="93.959" cy="148.866" r="10.289" style="fill:none;fill-opacity:1;stroke:#fff;stroke-width:.207535;stroke-opacity:1"/><circle cx="93.959" cy="148.866" r="9.171" style="fill:none;fill-opacity:1;stroke:#fff;stroke-width:.184977;stroke-opacity:1"/></g><path d="M3.82 2.38C2.128 2.354.522 3.639.19 5.3c-.357 1.584.45 3.362 1.916 4.083 1.29.68 2.978.52 4.09-.438 1.12-.929 1.63-2.545 1.172-3.938C6.981 3.718 5.852 2.682 4.52 2.45a3.7 3.7 0 0 0-.7-.068m.01.232c.648-.038 1.084.838.656 1.33-.349.473-1.2.393-1.414-.171-.235-.51.183-1.19.758-1.159m2.367 1.34c.647-.037 1.083.838.656 1.332-.349.472-1.201.392-1.414-.173-.235-.51.183-1.19.758-1.158m-4.78.06c.65-.038 1.085.839.657 1.333-.35.472-1.202.391-1.415-.173-.235-.51.182-1.192.758-1.16m.124 2.621c.647-.038 1.084.837.656 1.33-.349.473-1.201.393-1.414-.172-.235-.51.183-1.19.758-1.158M6.127 6.6c.647-.037 1.083.838.656 1.33-.35.473-1.202.395-1.416-.17-.235-.51.182-1.195.76-1.16M3.896 7.985c.648-.038 1.084.84.656 1.333-.35.472-1.202.392-1.415-.173-.235-.51.182-1.192.759-1.16" style="fill:#f57f1d;stroke-width:.0444087"/><path d="M4.88 4.795a1 1 0 0 0-.119.01c-.673.113-.644.895-.644.895s0 .347.323.522c.27.156.425-.012.451-.039.027-.026.574-.711.486.59 0 0 .193-.21.205-.709.012-.5-.31-.53-.31-.53s-.141-.035-.423.27c-.281.304-.301.29-.301.29s-.08.056-.089-.085c-.01-.141-.04-.569.39-.8s.64.335.64.335-.048-.748-.609-.749m-1.206.324a.229.305 77.92 0 0-.086.008.229.305 77.92 0 0-.25.288.229.305 77.92 0 0 .346.16.229.305 77.92 0 0 .25-.288.229.305 77.92 0 0-.26-.168m-1.425.095s-.193.21-.205.71c-.012.499.309.53.309.53s.141.035.423-.27c.282-.304.302-.29.302-.29s.08-.056.089.085.04.569-.39.8c-.431.232-.64-.335-.64-.335s.054.851.727.739c.674-.112.644-.895.644-.895s.001-.347-.323-.522c-.27-.156-.424.012-.45.038-.027.027-.574.712-.486-.59m1.506.418a.233.233 0 0 0-.226.304s.136.54.866.558c0 0-.422-.302-.412-.647a.233.233 0 0 0-.228-.215" class="cls-2" style="fill:#000;stroke-width:.00662726"/></svg>