<svg xmlns="http://www.w3.org/2000/svg" viewBox="0 0 120 80">
  <!-- EQ frequency bars -->
  <rect x="14" y="30" width="8" height="28" rx="1" fill="#3584e4" fill-opacity="0.5"/>
  <rect x="26" y="20" width="8" height="38" rx="1" fill="#3584e4" fill-opacity="0.7"/>
  <rect x="38" y="15" width="8" height="43" rx="1" fill="#3584e4"/>
  <rect x="50" y="22" width="8" height="36" rx="1" fill="#3584e4" fill-opacity="0.8"/>
  <rect x="62" y="18" width="8" height="40" rx="1" fill="#3584e4" fill-opacity="0.9"/>
  <rect x="74" y="25" width="8" height="33" rx="1" fill="#3584e4" fill-opacity="0.7"/>
  <rect x="86" y="32" width="8" height="26" rx="1" fill="#3584e4" fill-opacity="0.5"/>
  <rect x="98" y="38" width="8" height="20" rx="1" fill="#3584e4" fill-opacity="0.3"/>
  <!-- Baseline -->
  <line x1="10" y1="58" x2="110" y2="58" stroke="#999" stroke-width="1"/>
  <!-- EQ curve overlay -->
  <path d="M18,30 Q32,18 42,15 Q52,20 66,18 Q78,24 90,32 Q100,38 102,38" fill="none" stroke="#e5a50a" stroke-width="1.5"/>
  <!-- Labels -->
  <text x="18" y="72" font-family="sans-serif" font-size="4" fill="#999">Low</text>
  <text x="56" y="72" font-family="sans-serif" font-size="4" fill="#999">Mid</text>
  <text x="96" y="72" font-family="sans-serif" font-size="4" fill="#999">High</text>
</svg>
